<svg width="512" height="512" viewBox="0 0 512 512" xmlns="http://www.w3.org/2000/svg">
  <defs>
    <linearGradient id="bg" x1="0%" y1="0%" x2="100%" y2="100%">
      <stop offset="0%" style="stop-color:#667eea;stop-opacity:1" />
      <stop offset="100%" style="stop-color:#764ba2;stop-opacity:1" />
    </linearGradient>
    <linearGradient id="text" x1="0%" y1="0%" x2="100%" y2="100%">
      <stop offset="0%" style="stop-color:#ffffff;stop-opacity:1" />
      <stop offset="100%" style="stop-color:#f8f9fa;stop-opacity:1" />
    </linearGradient>
  </defs>
  
  <!-- Hintergrund -->
  <rect width="512" height="512" rx="80" fill="url(#bg)"/>
  
  <!-- Hauptsymbol: Stilisiertes "E" -->
  <g transform="translate(128, 128)">
    <!-- Vertikaler Strich -->
    <rect x="0" y="0" width="32" height="256" rx="16" fill="url(#text)"/>
    
    <!-- Horizontale Striche -->
    <rect x="0" y="0" width="160" height="32" rx="16" fill="url(#text)"/>
    <rect x="0" y="112" width="128" height="32" rx="16" fill="url(#text)"/>
    <rect x="0" y="224" width="160" height="32" rx="16" fill="url(#text)"/>
  </g>
  
  <!-- Diff-Symbole -->
  <g transform="translate(320, 80)">
    <!-- Plus-Symbol (grün) -->
    <circle cx="32" cy="32" r="24" fill="#10b981" opacity="0.9"/>
    <rect x="24" y="28" width="16" height="8" rx="4" fill="white"/>
    <rect x="28" y="24" width="8" height="16" rx="4" fill="white"/>
  </g>
  
  <g transform="translate(320, 160)">
    <!-- Minus-Symbol (rot) -->
    <circle cx="32" cy="32" r="24" fill="#ef4444" opacity="0.9"/>
    <rect x="24" y="28" width="16" height="8" rx="4" fill="white"/>
  </g>
  
  <g transform="translate(320, 240)">
    <!-- Änderungs-Symbol (blau) -->
    <circle cx="32" cy="32" r="24" fill="#3b82f6" opacity="0.9"/>
    <path d="M 24 32 L 32 24 L 40 32 L 32 40 Z" fill="white"/>
  </g>
  
  <!-- Subtile Linien für Diff-Charakter -->
  <g stroke="url(#text)" stroke-width="4" opacity="0.3">
    <line x1="80" y1="400" x2="432" y2="400"/>
    <line x1="80" y1="420" x2="432" y2="420"/>
    <line x1="80" y1="440" x2="432" y2="440"/>
  </g>
</svg> 